<svg width="20" height="20" viewBox="0 0 20 20" xmlns="http://www.w3.org/2000/svg"><path d="m7.942 12.221l-5.812 2.829s-1.128.503-1.128 1.128v1.693c0 .623.505 1.128 1.128 1.128h15.791c.624 0 1.128-.505 1.128-1.128v-1.693c0-.664-1.128-1.128-1.128-1.128l-5.767-2.799m2.283-4.577c-.175 2.825-2.254 5.116-4.381 5.116h-.095c-1.937 0-4.199-2.29-4.364-5.116l-.092-1.558c-.166-2.826 1.834-5.116 4.467-5.116h.112c2.633 0 4.626 2.291 4.451 5.116l-.096 1.558z" stroke="#fff" stroke-width="1.5" stroke-linecap="round" fill="none"/></svg>